<svg clip-rule="evenodd" fill-rule="evenodd" stroke-linejoin="round" stroke-miterlimit="2" viewBox="0 0 335 159" xmlns="http://www.w3.org/2000/svg"><path d="m232.466 193.491.619 1.444.197 1.506h27.753l2.128.376.76.459c.382-.191.757-.345 1.124-.466l2.244-.369h29.4l2.128.376.963.582c.462-.25.917-.443 1.359-.589l2.243-.369h29.4l2.129.376 1.605.97 1.202 1.594.423 1.271.109 1.126-.248 1.703-.571 1.379c-.021.038-.042.077-.064.114 0 0-10.844 18.739-10.892 18.819l-1.309 1.752c-.47.477-1.016.917-1.647 1.309-.637.396-1.254.684-1.841.882l-2.239.378h-29.4l-1.94-.33-7.123 12.36-1.08 1.473-1.136.948-1.321.62-1.575.241-1.465-.222-1.376-.686-.833-.751-.772-1.148.144.265-5.819-9.844c-.025-.043-.05-.086-.073-.129l-.625-1.701-.112-1.096h-10.988l-2.103-.358-.822-.48c-.373.189-.738.34-1.091.46l-2.24.378h-29.4l-2.103-.358-.822-.48c-.373.189-.738.34-1.092.46l-2.239.378h-10.5l-2.103-.358-1.605-.937-1.241-1.589-.447-1.297-.115-1.155.248-1.704.57-1.379c.021-.037.041-.074.063-.111l13.343-23.1.004-.006s7-12.075 6.995-12.067l1.041-1.437 1.097-.943 1.313-.642 1.618-.26 1.316.176 1.25.533.982.768.675.825c.044.067.087.135.127.204 0 0 5.782 9.825 5.8 9.856zm-22.174-46.454 1.281-1.729c.463-.477 1-.916 1.617-1.309l1.886-.909 2.253-.373h29.399l2.103.357.926.54c.424-.22.84-.395 1.247-.529l2.243-.368h29.4l2.128.375.567.342c.298-.138.591-.254.88-.349l2.244-.368h29.4l2.128.375.907.548 1.231-.594 2.252-.373h10.5l2.103.357.784.458c.337-.162.669-.296.995-.403l2.243-.368h29.4l2.128.375.663.4c.34-.164.675-.299 1.003-.407l2.244-.368h29.399l1.348.237c2.821-4.889 4.901-8.492 4.916-8.517l1.309-1.752c.47-.476 1.016-.916 1.647-1.309.644-.4 1.273-.691 1.881-.891l2.243-.368h10.5l2.128.375 1.606.97 1.202 1.594.423 1.271.109 1.126-.248 1.703-.571 1.379c-.023.043-.047.085-.072.128l-.838 1.436.212.188.693.986.431 1.151.13 1.123-.321 1.763-.842 1.448-1.202 1.081-1.657.808c-.015.005-.031.011-.046.016-.958.319-1.84.479-2.641.517-.008.006-.016.013-.022.02l-21.449 37.22-1.08 1.473-1.136.947-1.321.62-1.575.241-1.145-.134-1.105-.408-1.075-.743-1.007-1.233c-.007-.012-.014-.024-.021-.036 0 0-5.733-9.771-5.754-9.808l-.689-1.697-.144-1.253h-27.56l-2.103-.357-.722-.422c-.332.162-.657.294-.973.401l-2.24.378h-29.399l-1.435-.244-7.059 12.231-1.041 1.437-1.097.943-1.313.641-1.618.261-1.272-.16-1.316-.55-1.09-.886s-.725-1.003-.672-.91c0 0-5.782-9.825-5.8-9.857l-.619-1.443-.192-1.463h-28.02l-2.103-.357-1.605-.937-1.24-1.59-.447-1.297-.116-1.155.248-1.703.57-1.379c.021-.039.043-.077.065-.115 0 0 1.597-2.761 3.568-6.167h-6.771l-2.103-.357-1.151-.672c-2.814 4.866-6.568 11.36-6.597 11.408l-1.309 1.752c-.47.477-1.017.917-1.648 1.309-.636.397-1.253.684-1.84.882l-2.24.378h-10.5l-2.102-.357-.926-.541c-.424.221-.84.396-1.247.53l-2.243.368h-14.294l-6.93 12.028-.001.003-1.081 1.473-1.135.947-1.321.62-1.576.241-1.145-.134-1.105-.408-1.074-.743-1.007-1.233c-.008-.012-.015-.024-.022-.036l-5.775-9.844.081.132-.772-1.808-.204-1.718.276-2.143s.86-2.031.825-1.972c0 0 13.12-22.677 13.167-22.757zm219.075-8.481.282.033c-.087-.021-.177-.038-.271-.05zm-210.238 35.767c.008-.002.015-.003.022-.005.002-.017.001-.036.008-.05-.01.019-.02.037-.03.055zm209.028-25.142c-.118.006-.234.008-.348.008.106 0 .228.023.348-.008zm.244-2.199c.182.066.391.107.633.107z" fill-opacity=".5" transform="matrix(1.39986 0 0 1.39986 -274.4055 -182.1448)"/><path d="m231.241 194.226.469 1.096c.125.446.201.963.201 1.556 0 .338-.023.669-.067.992h29.191l.77.058.849.224 1.165.702.063.085c.014-.009.027-.017.04-.025 1.182-.736 2.318-1.044 3.369-1.044h29.4l.77.058.849.224 1.165.702.209.277c.107-.074.218-.146.331-.217 1.183-.736 2.318-1.044 3.369-1.044h29.4l.771.058.849.224 1.165.702.864 1.147.309.929.081.848-.191 1.303-.457 1.101c-.014.026-.028.052-.043.077 0 0-10.892 18.822-10.908 18.849-.543.986-1.349 1.843-2.458 2.533-1.194.743-2.317 1.044-3.325 1.044h-29.4l-.768-.056-.842-.214-.891-.519-7.799 13.534c-.284.493-.584.891-.882 1.206l-.869.727-.976.458-1.148.176-1.038-.157-.973-.484-.713-.677-.444-.699.095.177-5.818-9.844c-.017-.028-.033-.057-.049-.086l-.482-1.316c-.083-.385-.129-.81-.129-1.277 0-.325.02-.641.061-.949h-12.429l-.767-.056-.843-.214-1.168-.68-.11-.121c-.014.009-.028.018-.043.027-1.193.743-2.317 1.044-3.325 1.044h-29.4l-.767-.056-.843-.214-1.168-.68-.11-.121c-.014.009-.028.018-.043.027-1.194.743-2.317 1.044-3.325 1.044h-10.5l-.767-.056-.843-.214-1.168-.68-.616-.679-.418-.783-.271-1.495.191-1.304.457-1.101c.014-.025.028-.05.042-.075l13.344-23.1.002-.003 6.997-12.07c.278-.483.568-.873.853-1.182l.84-.723.966-.474 1.172-.188.941.125.89.38.706.553.497.608c.029.044.058.09.085.136 0 0 5.794 9.845 5.806 9.866zm18.456-48.921c.059-.039.12-.078.181-.116 1.182-.735 2.318-1.044 3.369-1.044h29.4l.771.059.849.223 1.047.632c1.104-.642 2.165-.914 3.152-.914h29.4l.77.059.849.223 1.165.703.136.18c.074-.05.15-.1.227-.149 1.171-.745 2.307-1.059 3.371-1.059h10.5l.768.055.842.214 1.169.681.072.079c1.148-.694 2.251-.986 3.274-.986h29.4l.771.059.849.223 1.155.697c1.144-.689 2.243-.979 3.263-.979h29.399l.771.059.849.223.391.236c3.134-5.431 5.519-9.563 5.518-9.561.542-.977 1.345-1.827 2.446-2.513 1.183-.735 2.318-1.044 3.369-1.044h10.5l.771.059.849.223 1.164.703.865 1.146.309.929.081.848-.191 1.303-.457 1.102c-.015.028-.031.057-.048.085l-1.503 2.577.479.219.574.508.488.695.304.809.091.796-.229 1.259-.606 1.043-.896.803c-.348.233-.786.457-1.329.645-.01.003-.021.007-.031.01-.944.315-1.802.453-2.566.453-.104 0-.189.093-.304.166-.235.15-.429.319-.561.53l-.001.002-21.465 37.248c-.284.492-.584.89-.882 1.206l-.869.726-.976.458-1.148.177-1.018-.15-.928-.44-.695-.602-.466-.633c-.005-.008-.009-.016-.014-.024 0 0-5.747-9.796-5.761-9.82l-.525-1.295-.144-1.269c0-.367.025-.727.075-1.08h-29.024l-.767-.056-.843-.214-1.168-.68-.031-.034c-1.158.699-2.248.984-3.229.984h-29.399l-.768-.056-.842-.214-.476-.276-7.646 13.248c-.278.483-.568.873-.853 1.182l-.84.723-.966.473-1.172.189-.917-.115-.936-.391-.777-.632s-.524-.726-.489-.664c0 0-5.794-9.846-5.806-9.867l-.469-1.095c-.125-.446-.201-.964-.201-1.556 0-.323.021-.639.062-.949-.016 0-.032 0-.048 0h-29.4l-.767-.056-.843-.214-1.168-.68-.616-.679-.418-.783-.27-1.495.19-1.303.457-1.102c.014-.026.029-.051.043-.076 0 0 2.314-3.998 4.81-8.312h-9.249l-.767-.055-.843-.214-1.169-.681-.615-.679-.162-.304c-2.842 4.916-7.534 13.033-7.547 13.053-.543.987-1.349 1.846-2.459 2.536-1.194.743-2.318 1.044-3.326 1.044h-10.5l-.767-.056-.843-.214-1.168-.68-.19-.21c-.059.039-.12.078-.181.116-1.183.736-2.318 1.044-3.369 1.044h-14.64c-.052.023-.248.108-.366.181-.203.126-.373.259-.472.439-.009.016-.018.033-.027.049l-6.958 12.077c-.284.492-.583.89-.881 1.206l-.869.726-.976.458-1.149.177-1.017-.15-.929-.44-.694-.602-.466-.633c-.005-.008-.01-.016-.015-.024l-5.774-9.844.053.088-.591-1.388-.162-1.371c0-1.266.316-2.402.919-3.416 0 0 13.191-22.8 13.185-22.79.54-.972 1.329-1.816 2.401-2.498 1.171-.745 2.307-1.06 3.372-1.06h29.399l.768.056.842.214 1.169.681z" fill="#fff" transform="matrix(1.39986 0 0 1.39986 -274.4055 -182.1448)"/><path d="m261.666 213.541 3.192 5.424c.096.16.144.376.144.648 0 .4-.096.768-.288 1.104l-7.248 12.528c-.176.32-.444.592-.804.816s-.692.336-.996.336h-5.76c-.448 0-.672-.192-.672-.576 0-.176.056-.368.168-.576l7.32-12.672 3.84-6.624c.24-.416.488-.624.744-.624.144 0 .264.072.36.216zm4.752 8.184h16.128c.432 0 .648.192.648.576 0 .176-.056.368-.168.576l-6 10.368c-.176.32-.444.592-.804.816s-.692.336-.996.336h-16.128c-.448 0-.672-.192-.672-.576 0-.176.056-.368.168-.576l6-10.368c.176-.32.444-.592.804-.816s.7-.336 1.02-.336zm3.216 10.368 4.656-8.064c.112-.208.168-.4.168-.576 0-.384-.216-.576-.648-.576-.32 0-.656.112-1.008.336s-.624.496-.816.816l-4.656 8.064c-.112.208-.168.4-.168.576 0 .384.216.576.648.576.32 0 .66-.112 1.02-.336s.628-.496.804-.816zm20.712 10.464-3.192-5.4c-.096-.176-.144-.4-.144-.672 0-.4.096-.76.288-1.08.08-.16.12-.312.12-.456 0-.368-.232-.552-.696-.552h-8.064c-.448 0-.672-.192-.672-.576 0-.176.056-.368.168-.576l6-10.368c.176-.32.444-.592.804-.816s.7-.336 1.02-.336h16.128c.432 0 .648.192.648.576 0 .176-.056.368-.168.576l-1.344 2.304c-.176.32-.444.592-.804.816s-.692.336-.996.336h-5.76c-.448 0-.672-.192-.672-.576 0-.176.056-.368.168-.576l.672-1.152c.112-.208.168-.4.168-.576 0-.384-.216-.576-.648-.576-.32 0-.656.112-1.008.336s-.624.496-.816.816l-4.656 8.064c-.112.208-.168.4-.168.576 0 .384.216.576.648.576.32 0 .66-.112 1.02-.336s.628-.496.804-.816l1.992-3.456c.192-.32.464-.592.816-.816s.688-.336 1.008-.336h5.76c.448 0 .672.192.672.576 0 .176-.064.368-.192.576l-7.8 13.536c-.24.416-.496.624-.768.624-.144 0-.256-.08-.336-.24zm15.432-20.832h16.128c.432 0 .648.192.648.576 0 .176-.056.368-.168.576l-6 10.368c-.176.32-.444.592-.804.816s-.692.336-.996.336h-16.128c-.448 0-.672-.192-.672-.576 0-.176.056-.368.168-.576l6-10.368c.176-.32.444-.592.804-.816s.7-.336 1.02-.336zm3.216 10.368 4.656-8.064c.112-.208.168-.4.168-.576 0-.384-.216-.576-.648-.576-.32 0-.656.112-1.008.336s-.624.496-.816.816l-4.656 8.064c-.112.208-.168.4-.168.576 0 .384.216.576.648.576.32 0 .66-.112 1.02-.336s.628-.496.804-.816z" fill="#cd3a3a" transform="matrix(2.5518187926 0 0 2.5518187926 -629.99933706 -466.95611602)"/><path d="m241.443 171.074h16.128c.448 0 .672.192.672.576 0 .176-.056.368-.168.576l-6 10.368c-.176.32-.444.592-.804.816s-.7.336-1.02.336h-8.064c-.304 0-.636.112-.996.336s-.628.496-.804.816l-3.816 6.624c-.24.416-.496.624-.768.624-.144 0-.264-.08-.36-.24l-3.168-5.4c-.112-.176-.168-.4-.168-.672 0-.4.096-.76.288-1.08l7.248-12.528c.176-.32.44-.592.792-.816s.688-.336 1.008-.336zm3.24 10.368 4.656-8.064c.112-.208.168-.4.168-.576 0-.384-.216-.576-.648-.576-.32 0-.66.112-1.02.336s-.628.496-.804.816l-4.656 8.064c-.128.208-.192.4-.192.576 0 .384.224.576.672.576.32 0 .656-.112 1.008-.336s.624-.496.816-.816zm16.464-10.368h16.128c.432 0 .648.192.648.576 0 .176-.056.368-.168.576l-1.344 2.304c-.176.32-.444.592-.804.816s-.692.336-.996.336h-5.76c-.448 0-.672-.192-.672-.576 0-.176.056-.368.168-.576l.672-1.152c.112-.208.168-.4.168-.576 0-.384-.216-.576-.648-.576-.32 0-.656.112-1.008.336s-.624.496-.816.816l-5.328 9.216c-.176.32-.444.592-.804.816s-.692.336-.996.336h-5.76c-.448 0-.672-.192-.672-.576 0-.176.056-.368.168-.576l6-10.368c.176-.32.444-.592.804-.816s.7-.336 1.02-.336zm19.32 0h16.128c.432 0 .648.192.648.576 0 .176-.056.368-.168.576l-6 10.368c-.176.32-.444.592-.804.816s-.692.336-.996.336h-16.128c-.448 0-.672-.192-.672-.576 0-.176.056-.368.168-.576l6-10.368c.176-.32.444-.592.804-.816s.7-.336 1.02-.336zm3.216 10.368 4.656-8.064c.112-.208.168-.4.168-.576 0-.384-.216-.576-.648-.576-.32 0-.656.112-1.008.336s-.624.496-.816.816l-4.656 8.064c-.112.208-.168.4-.168.576 0 .384.216.576.648.576.32 0 .66-.112 1.02-.336s.628-.496.804-.816zm22.728-9.24-11.136 19.296c-.24.416-.488.624-.744.624-.16 0-.28-.072-.36-.216l-3.192-5.424c-.096-.16-.144-.376-.144-.648 0-.4.096-.768.288-1.104l7.224-12.528c.192-.32.464-.592.816-.816s.688-.336 1.008-.336h5.76c.448 0 .672.192.672.576 0 .176-.064.368-.192.576zm6.936 5.784c-.32 0-.656.112-1.008.336s-.616.496-.792.816l-1.344 2.304c-.112.208-.168.4-.168.576 0 .384.216.576.648.576.32 0 .66-.112 1.02-.336s.628-.496.804-.816l.672-1.152c.176-.32.444-.592.804-.816s.7-.336 1.02-.336h5.76c.432 0 .648.192.648.576 0 .176-.056.368-.168.576l-1.344 2.304c-.176.32-.444.592-.804.816s-.692.336-.996.336h-16.128c-.448 0-.672-.192-.672-.576 0-.176.056-.368.168-.576l6-10.368c.176-.32.444-.592.804-.816s.7-.336 1.02-.336h16.128c.432 0 .648.192.648.576 0 .176-.056.368-.168.576l-2.664 4.608c-.176.32-.444.592-.804.816s-.7.336-1.02.336zm1.512-4.608-1.32 2.304c-.128.208-.192.4-.192.576 0 .384.224.576.672.576.32 0 .656-.112 1.008-.336s.624-.496.816-.816l1.32-2.304c.112-.208.168-.4.168-.576 0-.384-.216-.576-.648-.576-.32 0-.656.112-1.008.336s-.624.496-.816.816zm27.336 2.304h-5.76c-.448 0-.672-.192-.672-.576 0-.176.056-.368.168-.576l.672-1.152c.112-.208.168-.4.168-.576 0-.384-.216-.576-.648-.576-.32 0-.656.112-1.008.336s-.624.496-.816.816l-4.656 8.064c-.112.208-.168.4-.168.576 0 .384.216.576.648.576.32 0 .66-.112 1.02-.336s.628-.496.804-.816l1.992-3.456c.192-.32.464-.592.816-.816s.688-.336 1.008-.336h5.76c.448 0 .672.192.672.576 0 .176-.064.368-.192.576l-2.664 4.608c-.176.32-.444.592-.804.816s-.692.336-.996.336h-16.128c-.448 0-.672-.192-.672-.576 0-.176.056-.368.168-.576l6-10.368c.176-.32.444-.592.804-.816s.7-.336 1.02-.336h16.128c.432 0 .648.192.648.576 0 .176-.056.368-.168.576l-1.344 2.304c-.176.32-.444.592-.804.816s-.692.336-.996.336zm12.888-4.608-11.784 20.448c-.24.416-.496.624-.768.624-.144 0-.264-.08-.36-.24l-3.168-5.4c-.096-.16-.144-.36-.144-.6 0-.464.12-.896.36-1.296l11.136-19.296c.176-.32.444-.592.804-.816s.7-.336 1.02-.336h5.76c.432 0 .648.192.648.576 0 .176-.056.368-.168.576l-1.344 2.304c-.112.208-.168.4-.168.576 0 .384.224.576.672.576.576 0 .864.136.864.408 0 .24-.208.432-.624.576-.336.112-.64.168-.912.168-.32 0-.656.112-1.008.336s-.624.496-.816.816z" fill="#4596c2" transform="matrix(2.5518187926 0 0 2.5518187926 -586.294308 -412.91032114)"/></svg>